<svg xmlns="http://www.w3.org/2000/svg" xmlns:xlink="http://www.w3.org/1999/xlink" viewBox="0,0,256,256" width="50px" height="50px"><g fill="#f9d276" fill-rule="nonzero" stroke="none" stroke-width="1" stroke-linecap="butt" stroke-linejoin="miter" stroke-miterlimit="10" stroke-dasharray="" stroke-dashoffset="0" font-family="none" font-weight="none" font-size="none" text-anchor="none" style="mix-blend-mode: normal"><path d="M47.36,243.2c-19.08696,0 -34.56,-15.47304 -34.56,-34.56v-161.28c0,-19.08696 15.47304,-34.56 34.56,-34.56h161.28c19.08696,0 34.56,15.47304 34.56,34.56v161.28c0,19.08696 -15.47304,34.56 -34.56,34.56z" id="shape"></path></g><g fill="#1b0451" fill-rule="nonzero" stroke="none" stroke-width="1" stroke-linecap="butt" stroke-linejoin="miter" stroke-miterlimit="10" stroke-dasharray="" stroke-dashoffset="0" font-family="none" font-weight="none" font-size="none" text-anchor="none" style="mix-blend-mode: normal"><g transform="scale(5.12,5.12)"><path d="M24.97461,8c-4.282,0 -8.17552,2.48414 -9.97852,6.36914l-1.68359,3.63086h27.31836c0.552,0 1,0.448 1,1c0,0.552 -0.448,1 -1,1h-5.36133h-27.38281l-5,10h4.79688l-0.96094,2.34961c-1.884,4.605 1.50156,9.65039 6.47656,9.65039h16.17383c2.297,0 4.39444,-1.31191 5.39844,-3.37891l0.42383,-0.875c1.292,-2.656 -0.64366,-5.74609 -3.59766,-5.74609h-16.9668c-1.36992,0 -2.5445,-0.82355 -3.06641,-2h23.70508v-0.02539c4.72472,-0.26401 8.91312,-3.20491 10.73828,-7.61523l0.22266,-0.53516c2.725,-6.583 -2.11424,-13.82422 -9.24023,-13.82422z"></path></g></g></svg>